<svg width="160" height="160" viewBox="0 0 160 160" fill="none" xmlns="http://www.w3.org/2000/svg">
<path d="M87.0312 80L133.516 126.484C134.505 127.474 135 128.646 135 130C135 131.354 134.505 132.526 133.516 133.516C132.526 134.505 131.354 135 130 135C128.646 135 127.474 134.505 126.484 133.516L80 87.0312L33.5156 133.516C32.526 134.505 31.3542 135 30 135C28.6458 135 27.474 134.505 26.4844 133.516C25.4948 132.526 25 131.354 25 130C25 128.646 25.4948 127.474 26.4844 126.484L72.9688 80L26.4844 33.5156C25.4948 32.526 25 31.3542 25 30C25 28.6458 25.4948 27.474 26.4844 26.4844C27.474 25.4948 28.6458 25 30 25C31.3542 25 32.526 25.4948 33.5156 26.4844L80 72.9688L126.484 26.4844C127.474 25.4948 128.646 25 130 25C131.354 25 132.526 25.4948 133.516 26.4844C134.505 27.474 135 28.6458 135 30C135 31.3542 134.505 32.526 133.516 33.5156L87.0312 80Z" fill="white"/>
</svg>
