<svg width="160" height="160" viewBox="0 0 160 160" fill="none" xmlns="http://www.w3.org/2000/svg">
<path d="M30 90C30 88.6458 30.4948 87.474 31.4844 86.4844C32.474 85.4948 33.6458 85 35 85C36.3542 85 37.526 85.4948 38.5156 86.4844L75 122.891V5C75 3.64583 75.4948 2.47396 76.4844 1.48438C77.474 0.494792 78.6458 0 80 0C81.3542 0 82.526 0.494792 83.5156 1.48438C84.5052 2.47396 85 3.64583 85 5V122.891L121.484 86.4844C122.474 85.4948 123.646 85 125 85C126.354 85 127.526 85.4948 128.516 86.4844C129.505 87.474 130 88.6458 130 90C130 91.3542 129.505 92.526 128.516 93.5156L83.75 138.281C83.1771 138.854 82.6042 139.297 82.0312 139.609C81.5104 139.87 80.8333 140 80 140C79.1667 140 78.4635 139.87 77.8906 139.609C77.3698 139.297 76.8229 138.854 76.25 138.281L31.4844 93.5156C30.4948 92.526 30 91.3542 30 90ZM130 150C131.354 150 132.526 150.495 133.516 151.484C134.505 152.474 135 153.646 135 155C135 156.354 134.505 157.526 133.516 158.516C132.526 159.505 131.354 160 130 160H30C28.6458 160 27.474 159.505 26.4844 158.516C25.4948 157.526 25 156.354 25 155C25 153.646 25.4948 152.474 26.4844 151.484C27.474 150.495 28.6458 150 30 150H130Z" fill="white"/>
</svg>
