<svg width="160" height="160" viewBox="0 0 160 160" fill="none" xmlns="http://www.w3.org/2000/svg">
<path d="M24.8044 151.011C21.476 151.011 18.3061 150.351 15.2947 149.03C12.2833 147.656 9.64174 145.86 7.36999 143.641C5.15106 141.369 3.3548 138.728 1.98118 135.716C0.660393 132.705 0 129.535 0 126.207V33.8044C0 30.476 0.660393 27.3061 1.98118 24.2947C3.3548 21.2833 5.15106 18.6682 7.36999 16.4492C9.64174 14.1775 12.2833 12.3812 15.2947 11.0604C18.3061 9.68681 21.476 9 24.8044 9H55.79C59.4354 9 62.5524 9.58115 65.1412 10.7434C67.7827 11.8529 70.1601 13.3586 72.2734 15.2605C74.3867 17.1625 76.3414 19.3285 78.1377 21.7588C79.934 24.189 81.7831 26.6985 83.685 29.2873H127.192C130.467 29.2873 133.611 29.9477 136.622 31.2684C139.633 32.5892 142.275 34.3855 144.547 36.6573C146.819 38.8762 148.641 41.4649 150.015 44.4235C151.388 47.382 152.102 50.4991 152.155 53.7746C154.638 55.7294 156.566 58.1068 157.94 60.9069C159.313 63.7069 160 66.6919 160 69.8618C160 70.3373 160 70.8128 160 71.2883C160 71.7109 159.947 72.16 159.842 72.6355L151.996 129.139C151.573 132.15 150.622 135.003 149.143 137.697C147.664 140.339 145.815 142.664 143.596 144.671C141.377 146.626 138.867 148.184 136.067 149.347C133.267 150.456 130.335 151.011 127.271 151.011H24.8044ZM141.139 49.6538C140.611 48.1217 139.871 46.7481 138.92 45.5329C137.969 44.265 136.86 43.1819 135.592 42.2838C134.324 41.3857 132.95 40.6989 131.471 40.2234C129.992 39.6951 128.433 39.4309 126.795 39.4309H78.6132L67.9941 25.2457C66.5676 23.3437 64.7713 21.8645 62.6052 20.8078C60.4392 19.6984 58.1674 19.1436 55.79 19.1436H25.3591C23.2987 19.1436 21.3439 19.5399 19.4948 20.3323C17.6457 21.1248 16.0079 22.2343 14.5815 23.6607C13.2079 25.0343 12.1248 26.6457 11.3323 28.4948C10.5399 30.3439 10.1436 32.2987 10.1436 34.3591V125.652C10.1436 125.969 10.1436 126.286 10.1436 126.603C10.1965 126.867 10.2229 127.158 10.2229 127.474L22.9817 65.741C23.4572 63.4164 24.3025 61.2767 25.5176 59.3219C26.7855 57.3143 28.2912 55.5973 30.0347 54.1709C31.8309 52.7444 33.8121 51.635 35.9782 50.8425C38.1971 49.9972 40.4953 49.5745 42.8727 49.5745H139.792C140.056 49.5745 140.267 49.5745 140.426 49.5745C140.637 49.5745 140.875 49.601 141.139 49.6538ZM126.875 140.867C128.777 140.867 130.573 140.55 132.263 139.916C134.007 139.229 135.539 138.305 136.86 137.143C138.233 135.928 139.343 134.527 140.188 132.943C141.086 131.358 141.667 129.614 141.932 127.712L149.777 71.2883C149.83 71.0241 149.856 70.7864 149.856 70.575C149.856 70.3637 149.856 70.126 149.856 69.8618C149.856 68.4882 149.592 67.1938 149.064 65.9787C148.536 64.7107 147.822 63.6277 146.924 62.7296C146.026 61.7786 144.969 61.039 143.754 60.5106C142.539 59.9823 141.218 59.7182 139.792 59.7182H42.8727C41.6576 59.7182 40.4953 59.9295 39.3858 60.3522C38.3292 60.722 37.3518 61.2767 36.4537 62.0163C35.5556 62.7032 34.7895 63.5485 34.1555 64.5523C33.5215 65.556 33.0989 66.6391 32.8876 67.8014L18.2268 139.045C20.4986 140.26 22.876 140.867 25.3591 140.867H126.875Z" fill="white"/>
</svg>
