<svg width="160" height="160" viewBox="0 0 160 160" fill="none" xmlns="http://www.w3.org/2000/svg">
<path d="M45 125C38.8021 125 32.9688 123.828 27.5 121.484C22.0313 119.089 17.2656 115.859 13.2031 111.797C9.14063 107.734 5.91146 102.969 3.51563 97.5C1.17188 92.0312 0 86.1979 0 80C0 73.8021 1.17188 67.9688 3.51563 62.5C5.91146 57.0312 9.14063 52.2656 13.2031 48.2031C17.2656 44.1406 22.0313 40.9375 27.5 38.5938C32.9688 36.1979 38.8021 35 45 35H65C66.3542 35 67.526 35.4948 68.5156 36.4844C69.5052 37.474 70 38.6458 70 40C70 41.3542 69.5052 42.526 68.5156 43.5156C67.526 44.5052 66.3542 45 65 45H45C40.1562 45 35.599 45.9115 31.3281 47.7344C27.1094 49.5573 23.4115 52.0573 20.2344 55.2344C17.0573 58.4115 14.5573 62.1354 12.7344 66.4062C10.9115 70.625 10 75.1562 10 80C10 84.8438 10.9115 89.401 12.7344 93.6719C14.5573 97.8906 17.0573 101.589 20.2344 104.766C23.4115 107.943 27.1094 110.443 31.3281 112.266C35.599 114.089 40.1562 115 45 115H65C66.3542 115 67.526 115.495 68.5156 116.484C69.5052 117.474 70 118.646 70 120C70 121.354 69.5052 122.526 68.5156 123.516C67.526 124.505 66.3542 125 65 125H45ZM95 125C93.6458 125 92.474 124.505 91.4844 123.516C90.4948 122.526 90 121.354 90 120C90 118.646 90.4948 117.474 91.4844 116.484C92.474 115.495 93.6458 115 95 115H115C119.844 115 124.375 114.089 128.594 112.266C132.865 110.443 136.589 107.943 139.766 104.766C142.943 101.589 145.443 97.8906 147.266 93.6719C149.089 89.401 150 84.8438 150 80C150 75.1562 149.089 70.625 147.266 66.4062C145.443 62.1354 142.943 58.4115 139.766 55.2344C136.589 52.0573 132.865 49.5573 128.594 47.7344C124.375 45.9115 119.844 45 115 45H95C93.6458 45 92.474 44.5052 91.4844 43.5156C90.4948 42.526 90 41.3542 90 40C90 38.6458 90.4948 37.474 91.4844 36.4844C92.474 35.4948 93.6458 35 95 35H115C121.198 35 127.031 36.1979 132.5 38.5938C137.969 40.9375 142.734 44.1406 146.797 48.2031C150.859 52.2656 154.062 57.0312 156.406 62.5C158.802 67.9688 160 73.8021 160 80C160 86.1979 158.802 92.0312 156.406 97.5C154.062 102.969 150.859 107.734 146.797 111.797C142.734 115.859 137.969 119.089 132.5 121.484C127.031 123.828 121.198 125 115 125H95ZM44.4531 85C43.099 85 42.0052 84.4792 41.1719 83.4375C40.3906 82.3958 40 81.25 40 80C40 78.75 40.3906 77.6042 41.1719 76.5625C42.0052 75.5208 43.099 75 44.4531 75H115.547C116.901 75 117.969 75.5208 118.75 76.5625C119.583 77.6042 120 78.75 120 80C120 81.25 119.583 82.3958 118.75 83.4375C117.969 84.4792 116.901 85 115.547 85H44.4531Z" fill="white"/>
</svg>
