<svg width="160" height="160" viewBox="0 0 160 160" fill="none" xmlns="http://www.w3.org/2000/svg">
<path d="M35.0781 150.469C32.9948 150.469 31.0417 150.078 29.2188 149.297C27.3958 148.516 25.7812 147.448 24.375 146.094C23.0208 144.74 21.9531 143.151 21.1719 141.328C20.3906 139.505 20 137.552 20 135.469V24.5312C20 22.4479 20.3906 20.4948 21.1719 18.6719C21.9531 16.849 23.0208 15.2604 24.375 13.9062C25.7292 12.5521 27.3177 11.4844 29.1406 10.7031C30.9635 9.92188 32.9167 9.53125 35 9.53125C36.25 9.53125 37.5 9.6875 38.75 10C40 10.3125 41.1719 10.7812 42.2656 11.4062L141.797 66.875C144.193 68.2292 146.068 70.0781 147.422 72.4219C148.776 74.7656 149.453 77.2917 149.453 80C149.453 82.7604 148.776 85.3125 147.422 87.6562C146.12 89.9479 144.245 91.7708 141.797 93.125L42.3438 148.594C41.25 149.219 40.0781 149.688 38.8281 150C37.5781 150.312 36.3281 150.469 35.0781 150.469ZM139.453 80C139.453 79.1146 139.219 78.2812 138.75 77.5C138.281 76.6667 137.656 76.0417 136.875 75.625L37.4219 20.1562C36.6927 19.7396 35.8854 19.5312 35 19.5312C33.6458 19.5312 32.474 20.026 31.4844 21.0156C30.4948 22.0052 30 23.1771 30 24.5312V135.469C30 136.823 30.4948 137.995 31.4844 138.984C32.474 139.974 33.6458 140.469 35 140.469C35.8854 140.469 36.6927 140.26 37.4219 139.844L136.875 84.375C137.656 83.9583 138.281 83.3594 138.75 82.5781C139.219 81.7448 139.453 80.8854 139.453 80Z" fill="white"/>
</svg>
