<svg width="160" height="160" viewBox="0 0 160 160" fill="none" xmlns="http://www.w3.org/2000/svg">
<path d="M40 80C40 81.3542 39.5052 82.526 38.5156 83.5156C37.526 84.5052 36.3542 85 35 85C34.1146 85 33.2292 84.7396 32.3438 84.2188L14.2188 72.8906C13.3333 74.401 12.526 75.8854 11.7969 77.3438C11.0677 78.8021 10.3385 80.3125 9.60938 81.875C9.19271 82.8125 8.59375 83.5677 7.8125 84.1406C7.08333 84.7135 6.17188 85 5.07812 85C3.72396 85 2.52604 84.5312 1.48438 83.5938C0.494792 82.6562 0 81.4844 0 80.0781C0 79.1927 0.286458 78.0469 0.859375 76.6406C1.43229 75.2344 2.16146 73.724 3.04688 72.1094C3.98438 70.4948 5 68.8542 6.09375 67.1875C7.23958 65.4688 8.35938 63.8281 9.45312 62.2656C10.5469 60.7031 11.5885 59.2969 12.5781 58.0469C13.5677 56.7969 14.349 55.8073 14.9219 55.0781C18.6198 50.651 22.7344 46.6927 27.2656 43.2031C31.849 39.7135 36.6927 36.6146 41.7969 33.9062C47.7344 30.7812 53.9062 28.5156 60.3125 27.1094C66.7708 25.7031 73.3333 25 80 25C84.4792 25 88.9062 25.3385 93.2812 26.0156C97.7083 26.6406 102.057 27.6562 106.328 29.0625L99.9219 37.5781C97.474 36.901 95 36.3802 92.5 36.0156C90 35.599 87.5 35.3125 85 35.1562V60C85 61.3542 84.5052 62.526 83.5156 63.5156C82.526 64.5052 81.3542 65 80 65C78.6458 65 77.474 64.5052 76.4844 63.5156C75.4948 62.526 75 61.3542 75 60V35.1562C69.4271 35.4688 64.0625 36.3802 58.9062 37.8906C53.8021 39.401 48.9323 41.4323 44.2969 43.9844C39.6615 46.4844 35.2865 49.4792 31.1719 52.9688C27.1094 56.4583 23.3594 60.3646 19.9219 64.6875L37.6562 75.7812C39.2188 76.7708 40 78.1771 40 80ZM77.5 135C75.1042 135 72.8385 134.557 70.7031 133.672C68.5677 132.734 66.6927 131.484 65.0781 129.922C63.5156 128.307 62.2656 126.432 61.3281 124.297C60.4427 122.161 60 119.896 60 117.5C60 115.417 60.3125 113.542 60.9375 111.875C61.5625 110.156 62.474 108.464 63.6719 106.797L115.938 37.1094C116.927 35.7031 118.281 35 120 35C121.354 35 122.526 35.4948 123.516 36.4844C124.505 37.474 125 38.6458 125 40C125 40.5729 124.87 41.1979 124.609 41.875L94.375 122.109C93.6458 124.089 92.8385 125.807 91.9531 127.266C91.1198 128.672 89.8438 130.052 88.125 131.406C85.0521 133.802 81.5104 135 77.5 135ZM160 80.0781C160 81.4844 159.479 82.6562 158.438 83.5938C157.448 84.5312 156.276 85 154.922 85C153.88 85 152.969 84.7135 152.188 84.1406C151.406 83.5677 150.807 82.8125 150.391 81.875C149.766 80.3125 149.062 78.8021 148.281 77.3438C147.5 75.8333 146.667 74.349 145.781 72.8906L127.656 84.2188C126.771 84.7396 125.885 85 125 85C123.646 85 122.474 84.5052 121.484 83.5156C120.495 82.526 120 81.3542 120 80C120 78.1771 120.781 76.7708 122.344 75.7812L140.078 64.6875C138.88 63.2292 137.656 61.8229 136.406 60.4688C135.156 59.1146 133.854 57.7604 132.5 56.4062L136.25 46.4062L136.328 46.3281C138.568 48.3073 140.833 50.5469 143.125 53.0469C145.469 55.5469 147.682 58.1771 149.766 60.9375C151.901 63.6979 153.802 66.5625 155.469 69.5312C157.188 72.4479 158.568 75.3125 159.609 78.125C159.87 78.8021 160 79.4531 160 80.0781ZM102.969 71.0938L71.6406 112.812C70.5469 114.323 70 115.885 70 117.5C70 119.583 70.7292 121.354 72.1875 122.812C73.6458 124.271 75.4167 125 77.5 125C79.5312 125 81.0938 124.453 82.1875 123.359C83.2812 122.214 84.1667 120.781 84.8438 119.062L102.969 71.0938Z" fill="white"/>
</svg>
