<svg width="160" height="160" viewBox="0 0 160 160" fill="none" xmlns="http://www.w3.org/2000/svg">
<path d="M25 70C22.9688 70 21.0417 69.6094 19.2188 68.8281C17.3958 68.0469 15.7812 66.9792 14.375 65.625C13.0208 64.2188 11.9531 62.6042 11.1719 60.7812C10.3906 58.9583 10 57.0312 10 55V25C10 22.9688 10.3906 21.0417 11.1719 19.2188C11.9531 17.3958 13.0208 15.8073 14.375 14.4531C15.7812 13.0469 17.3958 11.9531 19.2188 11.1719C21.0417 10.3906 22.9688 10 25 10H55C57.0312 10 58.9583 10.3906 60.7812 11.1719C62.6042 11.9531 64.1927 13.0469 65.5469 14.4531C66.9531 15.8073 68.0469 17.3958 68.8281 19.2188C69.6094 21.0417 70 22.9688 70 25V55C70 57.0312 69.6094 58.9583 68.8281 60.7812C68.0469 62.6042 66.9531 64.2188 65.5469 65.625C64.1927 66.9792 62.6042 68.0469 60.7812 68.8281C58.9583 69.6094 57.0312 70 55 70H25ZM105 70C102.969 70 101.042 69.6094 99.2188 68.8281C97.3958 68.0469 95.7812 66.9792 94.375 65.625C93.0208 64.2188 91.9531 62.6042 91.1719 60.7812C90.3906 58.9583 90 57.0312 90 55V25C90 22.9688 90.3906 21.0417 91.1719 19.2188C91.9531 17.3958 93.0208 15.8073 94.375 14.4531C95.7812 13.0469 97.3958 11.9531 99.2188 11.1719C101.042 10.3906 102.969 10 105 10H135C137.031 10 138.958 10.3906 140.781 11.1719C142.604 11.9531 144.193 13.0469 145.547 14.4531C146.953 15.8073 148.047 17.3958 148.828 19.2188C149.609 21.0417 150 22.9688 150 25V55C150 57.0312 149.609 58.9583 148.828 60.7812C148.047 62.6042 146.953 64.2188 145.547 65.625C144.193 66.9792 142.604 68.0469 140.781 68.8281C138.958 69.6094 137.031 70 135 70H105ZM55 60C56.3542 60 57.526 59.5052 58.5156 58.5156C59.5052 57.526 60 56.3542 60 55V25C60 23.6458 59.5052 22.474 58.5156 21.4844C57.526 20.4948 56.3542 20 55 20H25C23.6458 20 22.474 20.4948 21.4844 21.4844C20.4948 22.474 20 23.6458 20 25V55C20 56.3542 20.4948 57.526 21.4844 58.5156C22.474 59.5052 23.6458 60 25 60H55ZM135 60C136.354 60 137.526 59.5052 138.516 58.5156C139.505 57.526 140 56.3542 140 55V25C140 23.6458 139.505 22.474 138.516 21.4844C137.526 20.4948 136.354 20 135 20H105C103.646 20 102.474 20.4948 101.484 21.4844C100.495 22.474 100 23.6458 100 25V55C100 56.3542 100.495 57.526 101.484 58.5156C102.474 59.5052 103.646 60 105 60H135ZM25 150C22.9688 150 21.0417 149.609 19.2188 148.828C17.3958 148.047 15.7812 146.979 14.375 145.625C13.0208 144.219 11.9531 142.604 11.1719 140.781C10.3906 138.958 10 137.031 10 135V105C10 102.969 10.3906 101.042 11.1719 99.2188C11.9531 97.3958 13.0208 95.8073 14.375 94.4531C15.7812 93.0469 17.3958 91.9531 19.2188 91.1719C21.0417 90.3906 22.9688 90 25 90H55C57.0312 90 58.9583 90.3906 60.7812 91.1719C62.6042 91.9531 64.1927 93.0469 65.5469 94.4531C66.9531 95.8073 68.0469 97.3958 68.8281 99.2188C69.6094 101.042 70 102.969 70 105V135C70 137.031 69.6094 138.958 68.8281 140.781C68.0469 142.604 66.9531 144.219 65.5469 145.625C64.1927 146.979 62.6042 148.047 60.7812 148.828C58.9583 149.609 57.0312 150 55 150H25ZM105 150C102.969 150 101.042 149.609 99.2188 148.828C97.3958 148.047 95.7812 146.979 94.375 145.625C93.0208 144.219 91.9531 142.604 91.1719 140.781C90.3906 138.958 90 137.031 90 135V105C90 102.969 90.3906 101.042 91.1719 99.2188C91.9531 97.3958 93.0208 95.8073 94.375 94.4531C95.7812 93.0469 97.3958 91.9531 99.2188 91.1719C101.042 90.3906 102.969 90 105 90H135C137.031 90 138.958 90.3906 140.781 91.1719C142.604 91.9531 144.193 93.0469 145.547 94.4531C146.953 95.8073 148.047 97.3958 148.828 99.2188C149.609 101.042 150 102.969 150 105V135C150 137.031 149.609 138.958 148.828 140.781C148.047 142.604 146.953 144.219 145.547 145.625C144.193 146.979 142.604 148.047 140.781 148.828C138.958 149.609 137.031 150 135 150H105ZM55 140C56.3542 140 57.526 139.505 58.5156 138.516C59.5052 137.526 60 136.354 60 135V105C60 103.646 59.5052 102.474 58.5156 101.484C57.526 100.495 56.3542 100 55 100H25C23.6458 100 22.474 100.495 21.4844 101.484C20.4948 102.474 20 103.646 20 105V135C20 136.354 20.4948 137.526 21.4844 138.516C22.474 139.505 23.6458 140 25 140H55ZM135 140C136.354 140 137.526 139.505 138.516 138.516C139.505 137.526 140 136.354 140 135V105C140 103.646 139.505 102.474 138.516 101.484C137.526 100.495 136.354 100 135 100H105C103.646 100 102.474 100.495 101.484 101.484C100.495 102.474 100 103.646 100 105V135C100 136.354 100.495 137.526 101.484 138.516C102.474 139.505 103.646 140 105 140H135Z" fill="white"/>
</svg>
